<svg width="30" height="31" viewBox="0 0 30 31" fill="none" xmlns="http://www.w3.org/2000/svg">
<path fill-rule="evenodd" clip-rule="evenodd" d="M27.9663 8.20336V22.7766C27.9663 24.7832 26.3296 26.4199 24.323 26.4199H4.89202C2.88544 26.4199 1.24872 24.7832 1.24872 22.7766V8.20336C1.24872 6.19123 2.87989 4.56006 4.89202 4.56006H24.323C26.3352 4.56006 27.9663 6.19123 27.9663 8.20336ZM3.80702 7.66166C4.00787 7.26451 4.42087 6.98893 4.89202 6.98893H24.323C24.7942 6.98893 25.2071 7.26451 25.408 7.66166L14.6075 15.2219L3.80702 7.66166ZM3.67759 10.5359L13.2147 17.2118C14.0509 17.7973 15.1641 17.7973 16.0003 17.2118L25.5374 10.5359V22.7766C25.5374 23.4417 24.9881 23.991 24.323 23.991H4.89202C4.22685 23.991 3.67759 23.4417 3.67759 22.7766V10.5359Z" fill="#00FFBF"/>
</svg>
