<svg width="25" height="26" viewBox="0 0 25 26" fill="none" xmlns="http://www.w3.org/2000/svg">
<path fill-rule="evenodd" clip-rule="evenodd" d="M12.5 23.4167C18.2529 23.4167 22.9166 18.7529 22.9166 13C22.9166 7.24703 18.2529 2.58333 12.5 2.58333C6.74701 2.58333 2.08331 7.24703 2.08331 13C2.08331 14.6664 2.47458 16.2412 3.17025 17.638C3.35513 18.0092 3.41666 18.4334 3.30948 18.834L2.68905 21.1528C2.41972 22.1594 3.34062 23.0802 4.34722 22.8109L6.66601 22.1905C7.06657 22.0833 7.49082 22.1449 7.86199 22.3297C9.2587 23.0254 10.8336 23.4167 12.5 23.4167ZM8.33331 14.3021C7.90184 14.3021 7.55206 14.6519 7.55206 15.0833C7.55206 15.5148 7.90184 15.8646 8.33331 15.8646H14.0625C14.4939 15.8646 14.8437 15.5148 14.8437 15.0833C14.8437 14.6519 14.4939 14.3021 14.0625 14.3021H8.33331ZM7.55206 11.4375C7.55206 11.006 7.90184 10.6562 8.33331 10.6562H16.6666C17.0981 10.6562 17.4479 11.006 17.4479 11.4375C17.4479 11.869 17.0981 12.2187 16.6666 12.2187H8.33331C7.90184 12.2187 7.55206 11.869 7.55206 11.4375Z" fill="#fff"/>
</svg>
