<svg width="30" height="30" viewBox="0 0 30 30" fill="none" xmlns="http://www.w3.org/2000/svg">
<path d="M24.8653 2.8853C24.6642 2.37352 23.9425 2.37352 23.7415 2.8853L23.2037 4.25386C23.1423 4.41011 23.0191 4.5338 22.8634 4.59543L21.4998 5.13517C20.9899 5.33702 20.9899 6.06131 21.4998 6.26315L22.8634 6.80291C23.0191 6.86454 23.1423 6.98821 23.2037 7.14446L23.7415 8.51302C23.9425 9.02481 24.6642 9.02481 24.8653 8.51303L25.403 7.14446C25.4644 6.98821 25.5876 6.86454 25.7433 6.80291L27.1069 6.26315C27.6168 6.06131 27.6168 5.33702 27.1069 5.13517L25.7433 4.59543C25.5876 4.5338 25.4644 4.41011 25.403 4.25386L24.8653 2.8853Z" stroke="white" stroke-width="2.66667"/>
<path d="M20.0331 10.1607C19.8319 9.64891 19.1103 9.64891 18.9091 10.1607L18.7131 10.6597C18.6517 10.8159 18.5285 10.9396 18.3728 11.0012L17.8757 11.198C17.3657 11.3999 17.3657 12.1242 17.8757 12.326L18.3728 12.5228C18.5285 12.5844 18.6517 12.7081 18.7131 12.8644L18.9091 13.3633C19.1103 13.8751 19.8319 13.8751 20.0331 13.3633L20.2291 12.8644C20.2905 12.7081 20.4137 12.5844 20.5694 12.5228L21.0665 12.326C21.5765 12.1242 21.5765 11.3999 21.0665 11.198L20.5694 11.0012C20.4137 10.9396 20.2905 10.8159 20.2291 10.6597L20.0331 10.1607Z" stroke="white" stroke-width="2.66667"/>
<path d="M9.21579 25.0089C8.76779 24.7498 8.19452 24.9028 7.93537 25.3508C7.67621 25.7989 7.8293 26.3721 8.27731 26.6313L9.21579 25.0089ZM3.35945 21.7134C3.6186 22.1614 4.19187 22.3145 4.63988 22.0553C5.08788 21.7962 5.24097 21.2229 4.98182 20.775L3.35945 21.7134ZM26.552 14.9966C26.552 21.3799 21.3773 26.5546 14.9941 26.5546V28.4288C22.4125 28.4288 28.4263 22.4151 28.4263 14.9966H26.552ZM3.43615 14.9966C3.43615 8.61338 8.61081 3.43871 14.9941 3.43871V1.56445C7.57569 1.56445 1.56189 7.57825 1.56189 14.9966H3.43615ZM19.3673 17.808C15.3994 17.808 12.1827 14.5913 12.1827 10.6234H10.3084C10.3084 15.6265 14.3642 19.6823 19.3673 19.6823V17.808ZM25.5215 14.3332C24.2619 16.4177 21.9766 17.808 19.3673 17.808V19.6823C22.6597 19.6823 25.5408 17.9254 27.1258 15.3024L25.5215 14.3332ZM12.1827 10.6234C12.1827 8.01418 13.573 5.72881 15.6576 4.46914L14.6883 2.865C12.0653 4.44994 10.3084 7.33103 10.3084 10.6234H12.1827ZM14.9941 3.43871C14.8835 3.43871 14.7538 3.38883 14.6597 3.29087C14.58 3.20789 14.5615 3.12938 14.5571 3.09763C14.5519 3.0587 14.5545 2.94587 14.6883 2.865L15.6576 4.46914C16.2863 4.08927 16.4885 3.3937 16.4145 2.84678C16.3378 2.27825 15.8895 1.56445 14.9941 1.56445V3.43871ZM27.1258 15.3024C27.0448 15.4362 26.932 15.4388 26.8931 15.4336C26.8614 15.4292 26.7828 15.4107 26.6998 15.331C26.6019 15.2369 26.552 15.1072 26.552 14.9966H28.4263C28.4263 14.1012 27.7124 13.6529 27.1439 13.5762C26.597 13.5022 25.9014 13.7044 25.5215 14.3332L27.1258 15.3024ZM14.9941 26.5546C12.8873 26.5546 10.9149 25.9918 9.21579 25.0089L8.27731 26.6313C10.254 27.7747 12.549 28.4288 14.9941 28.4288V26.5546ZM4.98182 20.775C3.99896 19.0759 3.43615 17.1034 3.43615 14.9966H1.56189C1.56189 17.4417 2.21602 19.7368 3.35945 21.7134L4.98182 20.775Z" fill="white"/>
</svg>
