<svg width="30" height="30" viewBox="0 0 30 30" fill="none" xmlns="http://www.w3.org/2000/svg">
<g clip-path="url(#clip0_67_48)">
<path d="M24.9901 24.493C24.9901 24.7688 24.7662 24.9928 24.4903 24.9928C24.2144 24.9928 23.9905 24.7688 23.9905 24.493C23.9905 24.2171 24.2144 23.9932 24.4903 23.9932C24.7662 23.9932 24.9901 24.2171 24.9901 24.493ZM23.4907 11.9979H25.4899C25.7668 11.9979 25.9897 12.2208 25.9897 12.4977C25.9897 12.7746 25.7668 12.9975 25.4899 12.9975H23.4907C23.2138 12.9975 22.9909 12.7746 22.9909 12.4977C22.9909 12.2208 23.2138 11.9979 23.4907 11.9979ZM20.4919 9.99869C19.6702 9.99869 18.9925 10.6764 18.9925 11.4981V25.4926C18.9925 26.3142 19.6702 26.992 20.4919 26.992H28.4887C29.3104 26.992 29.9881 26.3142 29.9881 25.4926V11.4981C29.9881 10.6764 29.3104 9.99869 28.4887 9.99869H20.4919ZM20.4919 10.9983H28.4887C28.7746 10.9983 28.9885 11.2122 28.9885 11.4981V25.4926C28.9885 25.7784 28.7746 25.9924 28.4887 25.9924H20.4919C20.206 25.9924 19.9921 25.7784 19.9921 25.4926V11.4981C19.9921 11.2122 20.206 10.9983 20.4919 10.9983ZM13.9945 19.4949C13.9945 19.7708 13.7705 19.9947 13.4947 19.9947C13.2188 19.9947 12.9949 19.7708 12.9949 19.4949C12.9949 19.219 13.2188 18.9951 13.4947 18.9951C13.7705 18.9951 13.9945 19.219 13.9945 19.4949ZM1.49941 3.00146C0.677731 3.00146 0 3.6792 0 4.50087V20.4945C0 21.3162 0.677731 21.9939 1.49941 21.9939H10.9956V23.9932H9.49624C9.21935 23.9932 8.99644 24.2161 8.99644 24.493C8.99644 24.7698 9.21935 24.9928 9.49624 24.9928H17.4931C17.77 24.9928 17.9929 24.7698 17.9929 24.493C17.9929 24.2161 17.77 23.9932 17.4931 23.9932H15.9937V21.9939H17.4931C18.1608 21.9939 18.1488 20.9943 17.4931 20.9943H1.49941C1.21352 20.9943 0.999604 20.7804 0.999604 20.4945V17.9955H17.4931C17.77 17.9955 17.9929 17.7726 17.9929 17.4957C17.9929 17.2188 17.77 16.9959 17.4931 16.9959H0.999604V4.50087C0.999604 4.21498 1.21352 4.00107 1.49941 4.00107H25.4899C25.7758 4.00107 25.9897 4.21498 25.9897 4.50087V8.49929C25.9897 9.16403 26.9893 9.15603 26.9893 8.49929V4.50087C26.9893 3.6792 26.3116 3.00146 25.4899 3.00146H1.49941ZM11.9952 21.9939H14.9941V23.9932H11.9952V21.9939Z" fill="white" stroke="white" stroke-width="0.64"/>
</g>
<defs>
<clipPath id="clip0_67_48">
<rect width="29.9881" height="29.9881" fill="white" transform="translate(0 0.00244141)"/>
</clipPath>
</defs>
</svg>
