<svg width="25" height="26" viewBox="0 0 25 26" fill="none" xmlns="http://www.w3.org/2000/svg">
<path d="M12.5 6.64583C13.7084 6.64583 14.6875 7.625 14.6875 8.83333C14.6875 10.0417 13.7084 11.0208 12.5 11.0208C11.2917 11.0208 10.3125 10.0417 10.3125 8.83333C10.3125 7.625 11.2917 6.64583 12.5 6.64583ZM12.5 16.0208C15.5938 16.0208 18.8542 17.5417 18.8542 18.2083V19.3542H6.14585V18.2083C6.14585 17.5417 9.40627 16.0208 12.5 16.0208ZM12.5 4.66667C10.1979 4.66667 8.33335 6.53125 8.33335 8.83333C8.33335 11.1354 10.1979 13 12.5 13C14.8021 13 16.6667 11.1354 16.6667 8.83333C16.6667 6.53125 14.8021 4.66667 12.5 4.66667ZM12.5 14.0417C9.71877 14.0417 4.16669 15.4375 4.16669 18.2083V21.3333H20.8334V18.2083C20.8334 15.4375 15.2813 14.0417 12.5 14.0417Z" fill="#0F103F"/>
</svg>
