<svg width="30" height="31" viewBox="0 0 30 31" fill="none" xmlns="http://www.w3.org/2000/svg">
<path d="M14.6075 15.0374C15.8254 15.0374 16.9934 14.5536 17.8545 13.6924C18.7157 12.8313 19.1995 11.6633 19.1995 10.4454C19.1995 9.22759 18.7157 8.05961 17.8545 7.19846C16.9934 6.33731 15.8254 5.85352 14.6075 5.85352C13.3897 5.85352 12.2217 6.33731 11.3605 7.19846C10.4994 8.05961 10.0156 9.22759 10.0156 10.4454C10.0156 11.6633 10.4994 12.8313 11.3605 13.6924C12.2217 14.5536 13.3897 15.0374 14.6075 15.0374ZM14.6075 17.0549C8.50226 17.0549 4.58844 20.424 4.58844 22.0644V25.1275H24.6266V22.0644C24.6266 20.0806 20.9214 17.0549 14.6075 17.0549Z" fill="white"/>
</svg>
