<svg width="25" height="26" viewBox="0 0 25 26" fill="none" xmlns="http://www.w3.org/2000/svg">
<path d="M17.3523 10.1733C18.8521 11.1106 19.6019 11.5793 19.859 12.1794C20.0836 12.7033 20.0836 13.2966 19.859 13.8206C19.6019 14.4206 18.8521 14.8893 17.3523 15.8267L10.3083 20.2292C8.64378 21.2695 7.81151 21.7897 7.1247 21.7344C6.52603 21.6863 5.97725 21.3822 5.61915 20.9C5.20831 20.3469 5.20831 19.3654 5.20831 17.4025V8.59747C5.20831 6.63457 5.20831 5.65313 5.61915 5.09998C5.97725 4.61781 6.52603 4.31366 7.1247 4.26552C7.81151 4.21031 8.64378 4.73048 10.3083 5.77081L17.3523 10.1733Z" stroke="#0F103F" stroke-width="2.56" stroke-linejoin="round"/>
</svg>
